<svg id="Layer_1" 
enable-background="new 0 0 512 512" 
height="512" viewBox="0 0 512 512" width="512" xmlns="http://www.w3.org/2000/svg"><g>
<path fill='white'
d="m54.979 69.487c.073 4.141 3.458 7.429 7.631 7.367 4.142-.073 7.439-3.49 7.367-7.631-.402-22.759-.782-39.273-.995-47.906 15.681-1.781 57.234-5.933 106.471-6.292 2.14 22.215 8.629 97.201 8.629 189.393 0 2.064.851 4.036 2.351 5.453s3.52 2.148 5.579 2.035c.324-.019 32.787-1.862 63.987-1.862s63.663 1.843 63.987 1.862c.144.008.287.012.43.012 1.909 0 3.753-.729 5.149-2.047 1.5-1.417 2.351-3.389 2.351-5.453 0-20.521.321-41.602.956-62.658.124-4.14-3.131-7.598-7.271-7.722-4.175-.142-7.598 3.131-7.723 7.271-.558 18.516-.875 37.052-.946 55.218-11.695-.554-34.62-1.483-56.933-1.483s-45.237.929-56.933 1.483c-.422-106.885-9.285-189.006-9.376-189.844-.417-3.803-3.63-6.683-7.456-6.683-66.613 0-121.368 7.177-121.913 7.25-3.807.506-6.616 3.805-6.509 7.644.006.198.561 20.268 1.167 54.593z"/>
<path fill='white' d="m458.188 497.133c-6.179-255.147-.063-479.999-.001-482.24.107-3.838-2.702-7.138-6.509-7.644-.544-.071-55.3-7.249-121.912-7.249-3.826 0-7.039 2.88-7.455 6.684-.045.403-4.448 41.018-7.19 101.688-.188 4.138 3.016 7.644 7.153 7.831 4.133.189 7.645-3.016 7.831-7.153 2.076-45.915 5.104-80.192 6.439-94.025 49.205.359 90.786 4.512 106.475 6.292-.956 39.234-5.322 241.508.012 469.364-15.678 1.781-57.278 5.939-106.567 6.294-10.117-90.904-10.245-152.495-10.245-153.122-.001-3.806-2.852-7.008-6.631-7.449-1.129-.131-28.058-3.224-63.587-3.224s-62.458 3.093-63.587 3.224c-3.78.441-6.631 3.644-6.631 7.45 0 .625-.12 62.148-10.244 153.121-49.253-.354-90.879-4.514-106.568-6.294 3.611-154.112 2.844-295.435 1.547-387.391-.058-4.142-3.476-7.447-7.604-7.394-4.142.059-7.452 3.463-7.394 7.605 1.313 93.181 2.083 237.111-1.707 393.632-.093 3.828 2.713 7.111 6.509 7.616.545.072 55.3 7.25 121.913 7.25 3.811 0 7.016-2.858 7.451-6.644 8.938-77.795 10.678-135.613 11.015-154.705 10.067-.916 30.766-2.47 55.299-2.47s45.232 1.554 55.299 2.47c.338 19.092 2.076 76.91 11.016 154.705.436 3.786 3.641 6.644 7.451 6.644 66.612 0 121.368-7.178 121.913-7.25 3.795-.504 6.602-3.788 6.509-7.616z"/>
<path fill='white' d="m420.724 34.139c-21.063-1.879-42.393-3.139-63.396-3.746-4.033-.112-7.369 2.912-7.692 6.889-2.815 34.625-6.854 124.806-7.168 192.81-15.719-1.379-50.858-4.06-86.468-4.06-35.599 0-70.721 2.678-86.468 4.06-.313-68.018-4.353-158.196-7.169-192.811-.323-3.976-3.707-6.999-7.691-6.889-21.004.608-42.334 1.868-63.397 3.747-3.928.35-6.914 3.683-6.832 7.626 1.154 55.534 2.916 169.341 1.747 307.589-.035 4.142 3.294 7.528 7.436 7.563h.065c4.112 0 7.463-3.316 7.498-7.437 1.124-132.845-.456-243.159-1.606-301 16.095-1.327 32.306-2.286 48.366-2.862 2.566 36.407 6.603 124.13 6.603 192.702 0 2.104.884 4.112 2.437 5.533s3.634 2.122 5.727 1.938l.204-.02c4.842-.485 48.595-4.738 93.08-4.738 44.478 0 88.235 4.253 93.079 4.738l.206.02c2.096.183 4.174-.518 5.727-1.938s2.437-3.428 2.437-5.533c0-68.556 4.037-156.286 6.603-192.702 16.061.577 32.271 1.536 48.367 2.862-.795 40.054-1.971 114.868-1.988 207.523-.001 4.142 3.356 7.5 7.499 7.501h.001c4.142 0 7.499-3.357 7.5-7.499.019-98.25 1.341-176.402 2.127-214.243.081-3.94-2.905-7.273-6.834-7.623z"/>
<path fill='white' d="m93.432 376.132c-.031 0-.061 0-.091 0-4.101 0-7.449 3.3-7.498 7.411-.347 29.308-.823 58.475-1.416 86.688-.083 3.944 2.903 7.278 6.832 7.628 20.921 1.866 43.002 3.166 63.855 3.759 3.94.125 7.285-2.835 7.676-6.75 6.47-64.637 7.9-131.252 8.199-152.183 13.882-1.424 48.095-4.494 85.01-4.494s71.127 3.07 85.009 4.494c.3 20.931 1.729 87.546 8.2 152.183.385 3.843 3.62 6.753 7.46 6.753.071 0 .144-.001.216-.003 20.854-.593 42.936-1.893 63.855-3.759 3.93-.35 6.915-3.684 6.832-7.628-1.206-57.386-1.911-117.676-2.094-179.198-.013-4.135-3.367-7.478-7.5-7.478h-.022c-4.142.012-7.49 3.38-7.478 7.522.176 59.103.832 117.078 1.952 172.438-12.708 1.043-29.74 2.201-48.975 2.885-7.048-74.66-7.519-149.718-7.522-150.491-.02-3.779-2.849-6.954-6.602-7.407-.439-.053-44.576-5.312-93.332-5.312s-92.893 5.259-93.333 5.312c-3.753.453-6.582 3.627-6.602 7.407-.004.773-.472 75.807-7.522 150.491-19.233-.684-36.266-1.842-48.974-2.885.527-26.063.955-52.87 1.273-79.795.051-4.141-3.267-7.539-7.408-7.588z"/></g></svg>