<svg id="Capa_1" enable-background="new 0 0 512 512" height="512" viewBox="0 0 512 512" width="512" xmlns="http://www.w3.org/2000/svg"><g><path d="m157.5 9.058h-30l-15 60 45-30c8.284 0 15-6.716 15-15 0-8.285-6.716-15-15-15z" fill="#78ad63"/><path d="m142.5 24.058c0-8.284-6.716-15-15-15h-60c-8.284 0-15 6.716-15 15s6.716 15 15 15l45 30 15-30c8.284 0 15-6.716 15-15z" fill="#9ac470"/><path d="m197.38 194.268-26.225-32.312-13.655-122.898h-30.185l-59.815 226 90 241h30c16.568 0 30-13.431 30-30v-225.074c0-20.654-7.104-40.679-20.12-56.716z" fill="#9ac470"/><path d="m147.862 180.862c-3.624-4.465-5.888-9.878-6.524-15.593l-14.023-126.211h-59.815l-13.655 122.898-26.225 32.312c-13.016 16.037-20.12 36.062-20.12 56.716v225.073c0 16.569 13.431 30 30 30h120c16.568 0 30-13.431 30-30l-39.638-30z" fill="#b8d973"/><path d="m174.087 213.173-26.225-32.311h-70.724l-26.225 32.312c-8.649 10.657-13.413 24.085-13.413 37.81v225.073c9.353 0 18.584-2.049 27.052-6.001l20.912-9.762c17.146-8.004 36.958-8.002 54.102.006l17.933 8.376 2.943 1.374c8.471 3.957 17.708 6.007 27.057 6.007v-225.073c.001-13.725-4.763-27.153-13.412-37.811z" fill="#78ad63"/><path d="m504.5 385.058h-30l-75-60 75-60h30z" fill="#fbf0a8"/><path d="m67.5 265.058v150l30-30h377v-120z" fill="#fffbdb"/><path d="m504.5 256h-279.5v-6.573c0-22.304-7.741-44.125-21.796-61.443l-24.846-30.612-13.046-113.877c8.259-3.108 14.231-10.746 14.663-19.917.293-6.216-1.907-12.114-6.193-16.607-4.226-4.43-10.161-6.971-16.282-6.971h-89.576c-12.275 0-22.333 9.41-22.899 21.422-.293 6.216 1.907 12.114 6.193 16.607 2.276 2.385 5.047 4.223 8.076 5.411l-12.66 113.942-24.837 30.602c-14.056 17.318-21.797 39.139-21.797 61.443v225.073c0 20.678 16.822 37.5 37.5 37.5h150c20.678 0 37.5-16.822 37.5-37.5v-83.5h279.5c4.143 0 7.5-3.358 7.5-7.5v-120c0-4.142-3.357-7.5-7.5-7.5zm-294.5 218.5c0 12.407-10.093 22.5-22.5 22.5h-150c-12.407 0-22.5-10.093-22.5-22.5v-225.073c0-18.873 6.55-37.336 18.443-51.99l26.225-32.312c.906-1.116 1.472-2.47 1.631-3.898l13.655-122.899c.236-2.12-.443-4.24-1.866-5.83-1.422-1.589-3.455-2.498-5.588-2.498-2.07 0-3.998-.826-5.428-2.325-1.428-1.497-2.161-3.467-2.063-5.548.185-3.93 3.736-7.127 7.915-7.127h89.576c2.07 0 3.998.826 5.428 2.325 1.428 1.497 2.161 3.467 2.063 5.548-.185 3.93-3.736 7.127-7.915 7.127h-59.576c-4.142 0-7.5 3.358-7.5 7.5s3.358 7.5 7.5 7.5h52.886l13.318 116.252c.163 1.42.728 2.763 1.628 3.873l26.225 32.312c11.893 14.653 18.443 33.117 18.443 51.99v6.573h-15v-6.573c0-15.441-5.359-30.548-15.09-42.538l-26.225-32.311c-1.424-1.754-3.563-2.773-5.823-2.773h-70.724c-2.26 0-4.399 1.019-5.823 2.773l-26.225 32.312c-9.731 11.989-15.09 27.095-15.09 42.537v225.073c0 4.142 3.358 7.5 7.5 7.5 10.376 0 20.828-2.319 30.225-6.706l20.913-9.762c15.175-7.084 32.582-7.082 47.756.005l20.875 9.75c9.401 4.391 19.854 6.712 30.231 6.712 4.142 0 7.5-3.358 7.5-7.5v-83.499h15zm-145.37-54.071c.928.384 1.902.571 2.869.571 1.952 0 3.87-.762 5.305-2.197l27.802-27.803h79.394v75.493c-5.663-.765-11.224-2.386-16.384-4.796l-20.875-9.75c-19.207-8.97-41.239-8.973-60.448-.006l-20.913 9.762c-5.158 2.408-10.717 4.026-16.38 4.791v-217.067c0-12.01 4.168-23.759 11.736-33.084l23.974-29.538h63.579l23.974 29.537c7.568 9.326 11.736 21.075 11.736 33.085v6.573h-112.499c-4.142 0-7.5 3.358-7.5 7.5v150c0 3.034 1.827 5.768 4.63 6.929zm432.37-44.429h-399.5c-1.989 0-3.897.79-5.303 2.197l-17.197 17.197v-124.394h422z"/><path d="m171.418 361c4.142 0 7.5-3.358 7.5-7.5v-23.529h26.521v23.529c0 4.142 3.358 7.5 7.5 7.5s7.5-3.358 7.5-7.5v-60c0-4.142-3.358-7.5-7.5-7.5s-7.5 3.358-7.5 7.5v21.471h-26.521v-21.471c0-4.142-3.358-7.5-7.5-7.5s-7.5 3.358-7.5 7.5v60c0 4.142 3.358 7.5 7.5 7.5z"/><path d="m348.097 361c4.143 0 7.5-3.358 7.5-7.5v-16.984l19.309 21.939c1.482 1.685 3.553 2.545 5.633 2.545 1.76 0 3.527-.616 4.952-1.87 3.109-2.736 3.411-7.476.675-10.585l-15.248-17.326c9.888-2.849 17.119-11.687 17.119-22.126 0-12.734-10.756-23.093-23.976-23.093h-15.943c-4.162 0-7.52 3.358-7.52 7.5v60c-.001 4.142 3.356 7.5 7.499 7.5zm15.963-60c4.865 0 8.976 3.706 8.976 8.093s-4.11 8.093-8.976 8.093c-1.957 0-5.276.013-8.376.028-.015-3.021-.028-6.233-.028-8.122 0-1.606-.008-4.926-.017-8.093h8.421z"/><path d="m242.44 360.726h25.05c4.143 0 7.5-3.358 7.5-7.5s-3.357-7.5-7.5-7.5h-17.55v-14.726h15.704c4.143 0 7.5-3.358 7.5-7.5s-3.357-7.5-7.5-7.5h-15.704v-14.726h17.55c4.143 0 7.5-3.358 7.5-7.5s-3.357-7.5-7.5-7.5h-25.05c-4.142 0-7.5 3.358-7.5 7.5v59.452c0 4.142 3.358 7.5 7.5 7.5z"/><path d="m295.51 360.726h25.05c4.143 0 7.5-3.358 7.5-7.5s-3.357-7.5-7.5-7.5h-17.55v-14.726h15.703c4.143 0 7.5-3.358 7.5-7.5s-3.357-7.5-7.5-7.5h-15.703v-14.726h17.55c4.143 0 7.5-3.358 7.5-7.5s-3.357-7.5-7.5-7.5h-25.05c-4.143 0-7.5 3.358-7.5 7.5v59.452c0 4.142 3.357 7.5 7.5 7.5z"/><path d="m127.5 361c8.264 0 15.683-2.716 21.454-7.857 1.129-1.006 2.203-2.113 3.191-3.291 2.663-3.173 2.249-7.903-.924-10.566-3.173-2.664-7.904-2.25-10.566.924-.524.624-1.089 1.208-1.678 1.732-3.023 2.692-6.884 4.057-11.477 4.057-12.407 0-22.5-10.093-22.5-22.5s10.093-22.5 22.5-22.5c4.51 0 8.858 1.327 12.575 3.838 3.432 2.318 8.095 1.416 10.414-2.016s1.416-8.095-2.016-10.414c-6.207-4.191-13.459-6.407-20.973-6.407-20.678 0-37.5 16.822-37.5 37.5s16.822 37.5 37.5 37.5z"/><path d="m426.445 361c12.645 0 23.264-8.069 25.248-19.186 1.493-8.365-2.305-19.294-17.442-24.877-7.369-2.718-14.23-5.679-16.337-6.601-1.633-1.313-1.578-3.142-1.469-3.904.152-1.059.922-3.647 4.772-4.808 8.451-2.548 16.297 3.646 16.513 3.818 3.172 2.629 7.874 2.21 10.528-.948 2.665-3.171 2.256-7.902-.915-10.567-.567-.476-14.064-11.604-30.452-6.666-8.283 2.495-14.144 9.024-15.294 17.039-1.079 7.52 2.18 14.753 8.507 18.878.331.216.679.406 1.04.567.348.155 8.61 3.833 17.915 7.265 2.631.97 8.663 3.708 7.867 8.168-.599 3.354-4.683 6.822-10.481 6.822-5.964 0-11.702-2.404-15.351-6.43-2.781-3.069-7.524-3.302-10.594-.521-3.069 2.781-3.303 7.524-.521 10.594 6.445 7.111 16.338 11.357 26.466 11.357z"/><circle cx="474.5" cy="353.5" r="7.5"/><path d="m474.5 331c4.143 0 7.5-3.358 7.5-7.5v-30c0-4.142-3.357-7.5-7.5-7.5s-7.5 3.358-7.5 7.5v30c0 4.142 3.357 7.5 7.5 7.5z"/></g></svg>